<?xml version="1.0" standalone="no"?>
<svg xmlns="http://www.w3.org/2000/svg" viewBox="0 0 149.112 29" width="149.112" height="29"><g fill="#000000" color="#000000" transform="translate(0, 0) scale(0.5576924)"><svg width="52.0" height="52.0" x="0.0" y="0.0" viewBox="0 0 52 52"><path fill="currentColor" fill-rule="evenodd" d="M18.22 33.35s9.278 9.366 25.673 11.515a26.024 26.024 0 0 1-4.652 3.512l-.054.034a25.875 25.875 0 0 1-13.82 3.58 26.054 26.054 0 0 1-4.701-.545c-.167-.035-.333-.078-.5-.116-2.487-6.099-2.5-12.173-2.247-15.465.12-1.574.301-2.515.301-2.515zM15.745 22.9S12.273 35.616 18.61 50.89a26.12 26.12 0 0 1-5.368-2.273l-.055-.03A25.865 25.865 0 0 1 3.175 38.408a26.147 26.147 0 0 1-1.878-4.343c-.054-.163-.099-.328-.15-.492 4.038-5.202 9.293-8.25 12.27-9.678 1.423-.683 2.328-.997 2.328-.997zm35.536-2.96c.445 1.86.695 3.795.716 5.786l.002.064a25.868 25.868 0 0 1-3.81 13.76 26.134 26.134 0 0 1-2.821 3.797c-.115.127-.235.249-.352.374-6.524-.895-11.79-3.921-14.516-5.786-1.302-.892-2.026-1.517-2.026-1.517S41.223 33.065 51.28 19.94zM6.983 8.25c6.525.895 11.792 3.922 14.517 5.786 1.302.89 2.026 1.517 2.026 1.517S10.778 18.904.718 32.028a26.047 26.047 0 0 1-.715-5.784L0 26.181A25.871 25.871 0 0 1 3.81 12.42a26.18 26.18 0 0 1 2.822-3.797c.114-.128.235-.25.351-.375zM33.39 1.07a26.021 26.021 0 0 1 5.368 2.272l.055.03a25.864 25.864 0 0 1 10.012 10.18 25.98 25.98 0 0 1 1.878 4.342c.053.163.098.327.149.492-4.038 5.203-9.292 8.25-12.27 9.678-1.422.682-2.327.997-2.327.997s3.471-12.719-2.865-27.991zM26.134 0l.503.007c1.582.04 3.157.221 4.7.545.167.036.333.079.5.117 2.487 6.098 2.499 12.172 2.247 15.465-.12 1.573-.301 2.515-.301 2.515S24.506 9.283 8.11 7.135a26.1 26.1 0 0 1 4.651-3.513c.019-.01.036-.023.055-.033A25.877 25.877 0 0 1 26.637.009z"></path></svg></g><line x1="41" y1="1" x2="41" y2="28" stroke="#000000" stroke-linecap="round"></line><path fill="#000000" fill-rule="nonzero" d="M10.79 1.62Q12.26 3.10 12.26 5.95Q12.26 8.81 10.79 10.28Q9.31 11.76 6.62 11.76L6.62 11.76L3.34 11.76L3.34 17.23L0 17.23L0 0.14L6.62 0.14Q9.31 0.14 10.79 1.62ZM8.93 5.95L8.93 5.95Q8.93 3.12 6.46 3.12L6.46 3.12L3.34 3.12L3.34 8.76L6.46 8.76Q7.66 8.76 8.29 8.11Q8.93 7.46 8.93 5.95ZM26.33 14.26L26.33 17.23L20.28 17.23Q17.40 17.23 16.24 16.24Q15.07 15.24 15.07 12.72L15.07 12.72L15.07 0.14L26.33 0.14L26.33 3.12L18.41 3.12L18.41 7.13L23.95 7.13L23.71 10.10L18.41 10.10L18.41 12.48Q18.41 13.49 18.86 13.87Q19.32 14.26 20.52 14.26L20.52 14.26L26.33 14.26ZM38.71 10.34L42.53 17.23L38.66 17.23L35.33 10.90L32.93 10.90L32.93 17.23L29.59 17.23L29.59 3.82Q29.59 1.90 30.48 1.02Q31.37 0.14 33.46 0.14L33.46 0.14L36.29 0.14Q38.83 0.14 40.33 1.69Q41.83 3.24 41.83 5.62L41.83 5.62Q41.83 7.34 40.93 8.60Q40.03 9.86 38.71 10.34L38.71 10.34ZM36.07 8.11Q37.13 8.11 37.81 7.38Q38.50 6.65 38.50 5.56Q38.50 4.46 37.84 3.79Q37.18 3.12 36.07 3.12L36.07 3.12L34.42 3.12Q32.93 3.12 32.93 4.63L32.93 4.63L32.93 8.11L36.07 8.11ZM48.62 0.14L48.62 17.23L45.29 17.23L45.29 0.14L48.62 0.14ZM65.23 17.23L65.23 7.03L62.16 13.51Q61.49 14.81 60.49 14.81Q59.50 14.81 58.82 13.44L58.82 13.44L55.70 7.03L55.70 17.23L52.37 17.23L52.37 0.14L55.66 0.14L60.48 10.01L65.28 0.14L68.57 0.14L68.57 17.23L65.23 17.23ZM83.33 14.26L83.33 17.23L77.28 17.23Q74.40 17.23 73.24 16.24Q72.07 15.24 72.07 12.72L72.07 12.72L72.07 0.14L83.33 0.14L83.33 3.12L75.41 3.12L75.41 7.13L80.95 7.13L80.71 10.10L75.41 10.10L75.41 12.48Q75.41 13.49 75.86 13.87Q76.32 14.26 77.52 14.26L77.52 14.26L83.33 14.26ZM98.11 12.19L98.11 12.19Q98.11 14.62 96.34 16.00Q94.56 17.38 91.80 17.38L91.80 17.38Q89.62 17.38 87.58 16.18L87.58 16.18Q86.57 15.55 85.92 14.41Q85.27 13.27 85.27 11.81L85.27 11.81L88.30 11.66Q88.30 12.96 89.40 13.68Q90.50 14.40 91.85 14.40L91.85 14.40Q94.85 14.40 94.85 12.29L94.85 12.29Q94.85 10.56 92.81 10.25L92.81 10.25L90.02 9.96Q87.94 9.65 86.71 8.47Q85.49 7.30 85.49 5.09Q85.49 2.88 87.24 1.44Q88.99 0 91.67 0Q94.34 0 95.98 1.36Q97.61 2.71 97.61 4.85L97.61 4.85L94.63 4.99Q94.22 2.90 91.82 2.90L91.82 2.90Q90.36 2.90 89.53 3.53Q88.70 4.15 88.70 5.00Q88.70 5.86 89.30 6.35Q89.90 6.84 90.79 6.96L90.79 6.96L93.53 7.25Q98.11 7.87 98.11 12.19Z" transform="translate(51, 5.884)"></path></svg>